<svg width="48" height="48" viewBox="0 0 48 48" fill="none" xmlns="http://www.w3.org/2000/svg">
<path d="M24 11.8125C23.4825 11.8125 23.0625 12.2325 23.0625 12.75C23.0625 13.2675 23.4825 13.6875 24 13.6875C24.5175 13.6875 24.9375 13.2675 24.9375 12.75C24.9375 12.2325 24.5175 11.8125 24 11.8125Z" fill="white"/>
<path d="M8.4375 28.6875C8.95496 28.6875 9.375 28.2675 9.375 27.75C9.375 27.2325 8.95496 26.8125 8.4375 26.8125C7.92004 26.8125 7.5 27.2325 7.5 27.75C7.5 28.2675 7.92004 28.6875 8.4375 28.6875Z" fill="white"/>
<path d="M31.5 2.4375C23.0599 2.4375 16.1327 8.25659 15.5969 15.5863C7.55896 15.9895 0 21.7855 0 29.625C0 32.9011 1.29639 36.0754 3.65625 38.5906C4.12317 40.5154 3.55627 42.5555 2.14966 43.9622C1.88159 44.2302 1.80139 44.6334 1.94641 44.9839C2.09143 45.334 2.43311 45.5625 2.8125 45.5625C5.48621 45.5625 8.06287 44.514 9.97742 42.6665C11.8425 43.3022 14.276 43.6875 16.5 43.6875C24.939 43.6875 31.8655 37.8699 32.4027 30.5416C34.3656 30.4545 36.4072 30.0919 38.0226 29.5415C39.9371 31.389 42.5138 32.4375 45.1875 32.4375C45.5669 32.4375 45.9086 32.209 46.0536 31.8589C46.1986 31.5084 46.1184 31.1052 45.8503 30.8372C44.4437 29.4305 43.8768 27.3904 44.3438 25.4656C46.7036 22.9504 48 19.7761 48 16.5C48 8.35437 39.8588 2.4375 31.5 2.4375ZM16.5 41.8125C14.2874 41.8125 11.766 41.3782 10.077 40.7062C9.71521 40.5619 9.30176 40.6567 9.03845 40.9442C7.90649 42.1816 6.43469 43.0444 4.83105 43.441C5.71472 41.748 5.94031 39.7522 5.40271 37.8611C5.36023 37.712 5.28149 37.5758 5.17346 37.4648C3.04651 35.2742 1.875 32.4899 1.875 29.625C1.875 23.0186 8.57227 17.4375 16.5 17.4375C23.9861 17.4375 30.5625 22.6432 30.5625 29.625C30.5625 36.3453 24.2542 41.8125 16.5 41.8125ZM42.8265 24.3398C42.7185 24.4512 42.6398 24.5874 42.5973 24.7361C42.0597 26.6272 42.2853 28.623 43.1689 30.316C41.5653 29.9198 40.0935 29.0566 38.9615 27.8192C38.6982 27.5321 38.2848 27.4369 37.923 27.5812C36.4592 28.1635 34.3711 28.5667 32.3998 28.6641C32.1259 25.1188 30.3574 21.7866 27.334 19.3125H39.5625C40.0803 19.3125 40.5 18.8928 40.5 18.375C40.5 17.8572 40.0803 17.4375 39.5625 17.4375H24.4537C22.3257 16.3542 19.9362 15.7225 17.4767 15.59C18.0154 9.29333 24.0992 4.3125 31.5 4.3125C39.4277 4.3125 46.125 9.89355 46.125 16.5C46.125 19.3649 44.9535 22.1492 42.8265 24.3398Z" fill="white"/>
<path d="M24 26.8125H12.1875C11.6697 26.8125 11.25 27.2322 11.25 27.75C11.25 28.2678 11.6697 28.6875 12.1875 28.6875H24C24.5178 28.6875 24.9375 28.2678 24.9375 27.75C24.9375 27.2322 24.5178 26.8125 24 26.8125Z" fill="white"/>
<path d="M24 32.4375H8.4375C7.91968 32.4375 7.5 32.8572 7.5 33.375C7.5 33.8928 7.91968 34.3125 8.4375 34.3125H24C24.5178 34.3125 24.9375 33.8928 24.9375 33.375C24.9375 32.8572 24.5178 32.4375 24 32.4375Z" fill="white"/>
<path d="M39.5625 11.8125H27.75C27.2322 11.8125 26.8125 12.2322 26.8125 12.75C26.8125 13.2678 27.2322 13.6875 27.75 13.6875H39.5625C40.0803 13.6875 40.5 13.2678 40.5 12.75C40.5 12.2322 40.0803 11.8125 39.5625 11.8125Z" fill="white"/>
</svg>
