<svg width="147" height="147" viewBox="0 0 147 147" fill="none" xmlns="http://www.w3.org/2000/svg">
<mask id="mask0" mask-type="alpha" maskUnits="userSpaceOnUse" x="0" y="0" width="147" height="147">
<path d="M147 73.5C147 114.093 120.098 147 77.3684 147C34.639 147 0 114.093 0 73.5C0 32.9071 34.639 0 77.3684 0C120.098 0 147 32.9071 147 73.5Z" fill="#B15656"/>
</mask>
<g mask="url(#mask0)">
<circle cx="75" cy="72" r="75" fill="#CE422B"/>
<g filter="url(#filter0_d)">
<path d="M126.005 132.363C126.005 141.658 104.65 149.193 74.926 149.193C45.2023 149.193 21.1066 141.658 21.1066 132.363C21.1066 123.069 45.2023 115.534 74.926 115.534C104.65 115.534 126.005 123.069 126.005 132.363Z" fill="#2C2A2A"/>
<path d="M34.8881 98.5833H50.9773V124.888H34.8881V98.5833Z" fill="#987744"/>
<path d="M99.2447 98.927H115.334V125.232H99.2447V98.927Z" fill="#864936"/>
<path d="M75.3791 98.5821H83.1555V124.887H75.3791V98.5821Z" fill="#864936"/>
<path d="M67.0664 98.5821H75.3791V124.887H67.0664V98.5821Z" fill="#987744"/>
<path d="M143.758 94.7358V103.174H113.473L75.6472 91.6581L75.3791 91.7399V17.7649L87.8696 18.3846L100.821 -6H110.534L128.615 28.8656V37.1545H124.564L136.185 60.5424V68.7875H128.232L143.758 94.7358Z" fill="#4A342A"/>
<path d="M75.379 17.7649V91.7399L37.2852 103.174H7V94.7358L22.5261 68.7875H14.5726V60.5424L26.1944 37.1545H22.1426V28.8656L40.2242 -6H49.8643L62.9394 17.1482L75.379 17.7649Z" fill="#424342"/>
<path d="M113.473 94.82V103.258H75.3791V-5.91574H80.2487L98.3303 28.9498V37.2388H94.2785L105.9 60.6267V68.8747H97.9468L113.473 94.82Z" fill="#424342"/>
<path d="M75.3791 -5.91574V103.258H37.2853V94.82L52.8114 68.8747H44.8579V60.6267L56.4797 37.2388H52.4279V28.9498L70.5095 -5.91574H75.3791Z" fill="#575757"/>
</g>
</g>
<g clip-path="url(#clip0)">
<path d="M92.42 129.518C92.2724 130.68 91.6606 131.486 90.7325 131.786C89.5091 132.18 81.9787 134.618 75.0599 136.868C75.0501 136.871 75.0395 136.874 75.0297 136.878C69.1769 138.768 63.7312 140.582 62.8678 140.881L60.9483 138.874L59.0287 134.224L59.2608 131.955L75.0297 126.846L75.0599 126.836L81.62 124.718L87.1044 122.936C88.8341 122.393 90.8802 123.874 91.9138 126.405C92.3567 127.474 92.5466 128.58 92.42 129.518Z" fill="#704639"/>
<path d="M92.42 129.518C92.2724 130.68 91.6606 131.486 90.7325 131.786C89.5091 132.18 81.9787 134.618 75.0599 136.868C75.0501 136.871 75.0395 136.874 75.0297 136.878V126.846L75.0599 126.836L81.62 124.718L87.1044 122.936C88.8341 122.393 90.8802 123.874 91.9138 126.405C92.3567 127.474 92.5466 128.58 92.42 129.518Z" fill="#864936"/>
<path d="M62.1224 141C60.2358 141 58.7233 138.946 58.0705 137.349C57.2838 135.428 57.1554 132.633 59.2539 131.953C60.1901 131.652 61.2315 131.93 62.1904 132.737C62.9567 133.382 63.622 134.331 64.0639 135.41C65.096 137.933 64.5871 140.328 62.8794 140.881C62.6333 140.961 62.3799 141 62.1224 141Z" fill="#805142"/>
<path d="M90.7324 131.955L90.5848 135.105L89.1926 138.536L87.1043 140.885L75.0599 136.905L75.0296 136.895L59.2607 131.786C57.1513 131.111 57.2779 128.318 58.0795 126.405C59.092 123.874 61.1802 122.393 62.8677 122.936L75.0296 126.883L75.0599 126.893L77.2747 127.605L90.7324 131.955Z" fill="#8D5C4D"/>
<path d="M90.7325 131.955L90.5848 135.105L89.1926 138.536L87.1044 140.885L75.06 136.905L75.0297 136.895V126.883L75.06 126.893L77.2747 127.605L90.7325 131.955Z" fill="#805142"/>
<path d="M82.0841 116.224C81.8099 115.905 81.3248 115.793 80.9029 115.924C80.481 116.074 80.1857 116.43 80.2068 116.843C80.249 118.155 79.9959 119.224 78.4771 119.861C79.4052 116.768 79.806 114.049 76.1568 109.399C75.9459 109.137 75.5873 108.968 75.1865 109.005C75.1443 109.005 75.1021 109.024 75.0599 109.024C75.0501 109.027 75.0395 109.029 75.0297 109.032C74.7259 109.111 74.4644 109.295 74.3216 109.549C73.3302 111.462 72.1279 112.887 70.6513 113.899C66.4326 116.749 65.5677 119.693 65.6099 121.643C65.6521 125.928 70.1057 129.578 75.0296 129.593H75.0598C82.4005 129.593 87.8005 122.58 82.0841 116.224Z" fill="#FFA426"/>
<path d="M75.06 129.593H75.0297V109.032C75.0396 109.029 75.0501 109.026 75.06 109.024C75.1022 109.024 75.1443 109.005 75.1865 109.005C75.5873 108.968 75.9459 109.136 76.1568 109.399C79.8061 114.049 79.4053 116.768 78.4772 119.861C79.9959 119.224 80.249 118.155 80.2068 116.843C80.1857 116.43 80.4811 116.074 80.9029 115.924C81.3248 115.793 81.81 115.905 82.0842 116.224C87.8004 122.58 82.4005 129.593 75.06 129.593Z" fill="#FF873C"/>
<path d="M87.8466 141C87.5963 141 87.3491 140.962 87.1092 140.885C85.4015 140.331 84.8927 137.932 85.9257 135.409C86.715 133.483 88.6347 131.278 90.7347 131.953C91.6678 132.256 92.2652 133.065 92.4166 134.231C92.5371 135.163 92.361 136.27 91.9192 137.349C91.0303 139.517 89.3781 141 87.8466 141Z" fill="#864936"/>
<path d="M68.6265 130.834L64.6622 129.551C64.1018 129.37 63.8124 128.819 64.0163 128.322C64.2202 127.823 64.8403 127.565 65.3996 127.748L69.3639 129.03C69.9243 129.211 70.2137 129.763 70.0098 130.26C69.8036 130.763 69.1787 131.013 68.6265 130.834Z" fill="#704639"/>
<path d="M80.6245 134.716L76.6601 133.433C76.0998 133.252 75.8104 132.7 76.0143 132.203C76.2182 131.705 76.8373 131.449 77.3976 131.629L81.3619 132.912C81.9223 133.093 82.2117 133.644 82.0078 134.141C81.8017 134.645 81.1767 134.894 80.6245 134.716Z" fill="#864936"/>
</g>
<defs>
<filter id="filter0_d" x="-23" y="-46" width="196.758" height="215.193" filterUnits="userSpaceOnUse" color-interpolation-filters="sRGB">
<feFlood flood-opacity="0" result="BackgroundImageFix"/>
<feColorMatrix in="SourceAlpha" type="matrix" values="0 0 0 0 0 0 0 0 0 0 0 0 0 0 0 0 0 0 127 0"/>
<feOffset dy="-10"/>
<feGaussianBlur stdDeviation="15"/>
<feColorMatrix type="matrix" values="0 0 0 0 0.075 0 0 0 0 0.0709375 0 0 0 0 0.0709375 0 0 0 0.7 0"/>
<feBlend mode="normal" in2="BackgroundImageFix" result="effect1_dropShadow"/>
<feBlend mode="normal" in="SourceGraphic" in2="effect1_dropShadow" result="shape"/>
</filter>
<clipPath id="clip0">
<rect width="36" height="32" fill="white" transform="translate(57 109)"/>
</clipPath>
</defs>
</svg>
