<svg width="48" height="48" viewBox="0 0 48 48" fill="none" xmlns="http://www.w3.org/2000/svg">
<path d="M42.5121 0.146677C42.2371 0.0503987 41.9521 0.00146269 41.665 0.00146269C40.2472 0.00146269 39.0938 1.16027 39.0938 2.58467V7.5018H19.3391C18.6504 7.5018 18.003 7.77001 17.5162 8.25693L15.6412 10.1319C15.1843 10.5889 14.4407 10.5889 13.9838 10.1319L12.1088 8.25702C11.622 7.7701 10.9745 7.5018 10.2859 7.5018H8.90625V2.58467C8.90625 1.74863 8.49862 0.96059 7.81594 0.47648C7.12875 -0.0107244 6.28003 -0.131096 5.48803 0.146771C2.20556 1.2977 0 4.40927 0 7.88944V39.7971C0 44.3202 3.67987 48 8.20312 48H27.3835C28.0722 48 28.7196 47.7319 29.2065 47.245L31.0815 45.37C31.5383 44.913 32.282 44.913 32.7388 45.37L34.6138 47.245C35.1007 47.7318 35.7482 48 36.4368 48H39.7969C41.5046 48 43.1417 47.4802 44.5312 46.4969C44.8481 46.2724 44.9232 45.8337 44.6989 45.5167C44.4744 45.1998 44.0357 45.1248 43.7187 45.349C42.5681 46.1634 41.212 46.5938 39.7969 46.5938H36.4368C36.1237 46.5938 35.8295 46.4719 35.6082 46.2506L33.7332 44.3756C32.7279 43.3706 31.0923 43.3706 30.087 44.3756L28.212 46.2506C27.9908 46.4719 27.6965 46.5938 27.3834 46.5938H8.20312C4.45528 46.5938 1.40625 43.5449 1.40625 39.7971C1.40625 36.5823 3.68841 33.7819 6.8325 33.1386C8.03409 32.8927 8.90625 31.8355 8.90625 30.6246V25.8446C8.90625 25.4562 8.59153 25.1414 8.20312 25.1414C7.81472 25.1414 7.5 25.4562 7.5 25.8446V30.6246C7.5 31.1793 7.10962 31.6466 6.55059 31.7609C4.39584 32.2018 2.57653 33.4816 1.40625 35.2155V7.88944C1.40625 5.00559 3.23353 2.42736 5.95331 1.47367C6.30966 1.34889 6.69206 1.40345 7.00256 1.62357C7.31869 1.84772 7.5 2.19805 7.5 2.58467V23.032C7.5 23.4204 7.81472 23.7351 8.20312 23.7351C8.59153 23.7351 8.90625 23.4204 8.90625 23.032V8.908H10.2859C10.5989 8.908 10.8932 9.02988 11.1144 9.25131L12.9894 11.1263C13.492 11.6288 14.1523 11.8801 14.8125 11.8801C15.4727 11.8801 16.133 11.6288 16.6356 11.1263L18.5106 9.25121C18.7318 9.02988 19.0261 8.908 19.3391 8.908H39.0938V18.0219C39.0938 18.7106 39.3619 19.3579 39.8488 19.8448L41.7238 21.7198C41.9452 21.941 42.0671 22.2354 42.0671 22.5484C42.0671 22.8613 41.9452 23.1557 41.7238 23.3769L39.8488 25.252C39.362 25.7389 39.0938 26.3864 39.0938 27.0749V30.6245C39.0938 31.8354 39.9659 32.8927 41.1674 33.1385C44.3116 33.7818 46.5938 36.5822 46.5938 39.797C46.5938 41.1678 46.1878 42.4886 45.4198 43.6167C45.2014 43.9377 45.2844 44.3751 45.6053 44.5936C45.7265 44.676 45.8642 44.7156 46.0004 44.7156C46.2252 44.7156 46.4462 44.608 46.5823 44.4081C47.5098 43.0457 48 41.4512 48 39.797V7.88944C48 4.40936 45.7946 1.2977 42.5121 0.146677ZM41.4493 31.7609C40.8904 31.6466 40.5 31.1793 40.5 30.6246V27.075C40.5 26.762 40.6219 26.4676 40.8432 26.2464L42.7182 24.3714C43.7234 23.3662 43.7234 21.7306 42.7182 20.7254L40.8432 18.8505C40.6251 18.6324 40.5 18.3303 40.5 18.0219V2.58467C40.5 1.93565 41.0226 1.40767 41.665 1.40767C41.7933 1.40767 41.9217 1.42989 42.0468 1.47367C44.7665 2.42736 46.5938 5.00569 46.5938 7.88944V35.2154C45.4235 33.4815 43.6042 32.2018 41.4493 31.7609Z" fill="white"/>
<path d="M19.4531 17.1615C19.4531 15.223 17.8761 13.646 15.9375 13.646C13.9989 13.646 12.4219 15.223 12.4219 17.1615C12.4219 19.1 13.9989 20.677 15.9375 20.677C17.8761 20.677 19.4531 19.1 19.4531 17.1615ZM15.9375 19.2708C14.7744 19.2708 13.8281 18.3245 13.8281 17.1615C13.8281 15.9985 14.7744 15.0522 15.9375 15.0522C17.1006 15.0522 18.0469 15.9985 18.0469 17.1615C18.0469 18.3245 17.1006 19.2708 15.9375 19.2708Z" fill="white"/>
<path d="M35.3723 29.96C35.0976 29.6856 34.6524 29.6856 34.3778 29.96L33.0001 31.3378L31.6223 29.96C31.3477 29.6856 30.9025 29.6856 30.6279 29.96C30.3533 30.2347 30.3533 30.6798 30.6279 30.9544L32.0057 32.3321L30.6279 33.7098C30.3533 33.9845 30.3533 34.4296 30.6279 34.7042C30.7653 34.8415 30.9453 34.9101 31.1252 34.9101C31.3051 34.9101 31.4851 34.8415 31.6224 34.7042L33.0002 33.3265L34.3779 34.7042C34.5153 34.8415 34.6953 34.9101 34.8752 34.9101C35.0551 34.9101 35.2351 34.8415 35.3724 34.7042C35.647 34.4295 35.647 33.9844 35.3724 33.7098L33.9947 32.3321L35.3724 30.9544C35.6468 30.6797 35.6469 30.2346 35.3723 29.96Z" fill="white"/>
<path d="M22.5 17.8647H23.2032C23.5916 17.8647 23.9063 17.5499 23.9063 17.1615C23.9063 16.7731 23.5916 16.4584 23.2032 16.4584H22.5C22.1116 16.4584 21.7969 16.7731 21.7969 17.1615C21.7969 17.5499 22.1117 17.8647 22.5 17.8647Z" fill="white"/>
<path d="M33.3356 21.6796C33.3475 21.6801 33.3593 21.6804 33.3711 21.6804C33.7433 21.6804 34.054 21.3881 34.0728 21.0122C34.0764 20.9399 34.0782 20.8671 34.0782 20.794C34.0782 20.3137 34 19.8415 33.8458 19.3905C33.7201 19.023 33.32 18.8273 32.953 18.9527C32.5855 19.0784 32.3896 19.478 32.5152 19.8454C32.6193 20.1497 32.672 20.4688 32.672 20.7939C32.672 20.8436 32.6707 20.8931 32.6683 20.9423C32.649 21.3302 32.9478 21.6602 33.3356 21.6796Z" fill="white"/>
<path d="M28.05 17.1615C28.05 16.7731 27.7353 16.4584 27.3469 16.4584H25.9656C25.5772 16.4584 25.2625 16.7731 25.2625 17.1615C25.2625 17.5499 25.5772 17.8647 25.9656 17.8647H27.3469C27.7353 17.8647 28.05 17.5499 28.05 17.1615Z" fill="white"/>
<path d="M29.0644 24.4262C29.0644 24.0378 28.7496 23.7231 28.3612 23.7231H26.9801C26.5916 23.7231 26.2769 24.0378 26.2769 24.4262C26.2769 24.8146 26.5916 25.1293 26.9801 25.1293H28.3612C28.7496 25.1293 29.0644 24.8146 29.0644 24.4262Z" fill="white"/>
<path d="M31.4231 18.2763C31.6764 18.2763 31.9212 18.1389 32.0467 17.8988C32.2267 17.5546 32.0935 17.1298 31.7494 16.9499C31.2587 16.6934 30.7301 16.5354 30.1784 16.4801C29.7926 16.4416 29.4473 16.7233 29.4088 17.1099C29.3702 17.4962 29.6521 17.8408 30.0386 17.8794C30.4107 17.9166 30.7671 18.0232 31.0979 18.1961C31.2019 18.2504 31.3133 18.2763 31.4231 18.2763Z" fill="white"/>
<path d="M31.0906 24.8713C31.1775 24.8713 31.2658 24.8551 31.3514 24.8209C31.8642 24.6159 32.328 24.3182 32.7299 23.9361C33.0114 23.6685 33.0225 23.2234 32.7551 22.942C32.4874 22.6604 32.0424 22.6494 31.7609 22.9168C31.489 23.1754 31.1756 23.3767 30.8293 23.5151C30.4687 23.6592 30.2932 24.0685 30.4374 24.429C30.5475 24.704 30.8115 24.8713 31.0906 24.8713Z" fill="white"/>
<path d="M19.5966 41.6953C19.6592 41.6953 19.7229 41.6869 19.7861 41.6692C20.3026 41.5251 20.7909 41.3001 21.2376 41.0006C21.5602 40.7843 21.6463 40.3477 21.4302 40.0252C21.2138 39.7026 20.7769 39.6163 20.4547 39.8326C20.1323 40.0487 19.7802 40.2109 19.408 40.3148C19.0339 40.4193 18.8154 40.8071 18.9198 41.1811C19.0066 41.492 19.289 41.6953 19.5966 41.6953Z" fill="white"/>
<path d="M18.6926 25.1293H20.0738C20.4622 25.1293 20.777 24.8146 20.777 24.4262C20.777 24.0378 20.4622 23.7231 20.0738 23.7231H18.6926C18.3042 23.7231 17.9895 24.0378 17.9895 24.4262C17.9895 24.8146 18.3042 25.1293 18.6926 25.1293Z" fill="white"/>
<path d="M15.249 40.738C15.6677 41.0752 16.1341 41.3419 16.6354 41.5311C16.7172 41.5619 16.8011 41.5765 16.8835 41.5765C17.1676 41.5765 17.4352 41.403 17.5416 41.1214C17.6786 40.7582 17.4952 40.3525 17.1319 40.2153C16.7703 40.0789 16.4335 39.8863 16.1309 39.6427C15.8284 39.3991 15.3858 39.447 15.1422 39.7495C14.8988 40.0518 14.9466 40.4944 15.249 40.738Z" fill="white"/>
<path d="M22.2818 38.9403C22.361 38.9689 22.4418 38.9825 22.5214 38.9825C22.8089 38.9825 23.0788 38.8048 23.1825 38.5189C23.3649 38.016 23.4657 37.4882 23.4821 36.9502C23.494 36.562 23.1889 36.2377 22.8008 36.2259C22.7934 36.2256 22.7861 36.2255 22.7789 36.2255C22.4005 36.2255 22.0881 36.5264 22.0765 36.9072C22.0646 37.296 21.9919 37.677 21.8604 38.0397C21.728 38.4047 21.9168 38.808 22.2818 38.9403Z" fill="white"/>
<path d="M14.0625 30.3435C14.4509 30.3435 14.7657 30.0288 14.7657 29.6403V28.2591C14.7657 27.8707 14.4509 27.556 14.0625 27.556C13.6741 27.556 13.3594 27.8707 13.3594 28.2591V29.6403C13.3594 30.0287 13.6742 30.3435 14.0625 30.3435Z" fill="white"/>
<path d="M13.3594 33.7839C13.3594 34.1723 13.6741 34.487 14.0625 34.487C14.4509 34.487 14.7657 34.1723 14.7657 33.7839V32.4027C14.7657 32.0143 14.4509 31.6995 14.0625 31.6995C13.6741 31.6995 13.3594 32.0143 13.3594 32.4027V33.7839Z" fill="white"/>
<path d="M15.4636 26.1605C15.7067 25.8751 15.9975 25.6417 16.3278 25.4671C16.6712 25.2855 16.8023 24.86 16.6207 24.5168C16.4391 24.1736 16.0138 24.0423 15.6704 24.2239C15.1819 24.4823 14.7521 24.8271 14.393 25.2487C14.1412 25.5444 14.1767 25.9882 14.4724 26.2399C14.6048 26.3526 14.7668 26.4078 14.9279 26.4078C15.127 26.4078 15.3246 26.3238 15.4636 26.1605Z" fill="white"/>
<path d="M13.3594 36.7929C13.3594 37.2338 13.4162 37.6718 13.5285 38.0947C13.6121 38.4096 13.8966 38.6177 14.2077 38.6177C14.2674 38.6177 14.328 38.61 14.3885 38.594C14.7638 38.4943 14.9874 38.1094 14.8877 37.734C14.8068 37.4288 14.7657 37.1121 14.7657 36.7929V36.5461C14.7657 36.1577 14.4509 35.843 14.0625 35.843C13.6741 35.843 13.3594 36.1577 13.3594 36.5461V36.7929Z" fill="white"/>
<path d="M24.2176 23.7231H22.8364C22.448 23.7231 22.1332 24.0378 22.1332 24.4262C22.1332 24.8146 22.448 25.1293 22.8364 25.1293H24.2176C24.606 25.1293 24.9207 24.8146 24.9207 24.4262C24.9207 24.0378 24.6059 23.7231 24.2176 23.7231Z" fill="white"/>
<path d="M23.8349 34.5738C24.0127 34.245 24.2488 33.9563 24.5364 33.7159C24.8344 33.4669 24.874 33.0233 24.6248 32.7255C24.3758 32.4276 23.9324 32.3877 23.6344 32.6371C23.2096 32.9922 22.8609 33.4188 22.5979 33.9048C22.4131 34.2464 22.5402 34.673 22.8818 34.8577C22.9882 34.9152 23.1027 34.9425 23.2157 34.9425C23.4658 34.9424 23.7076 34.8089 23.8349 34.5738Z" fill="white"/>
<path d="M26.6719 33.0353H27.375C27.7635 33.0353 28.0782 32.7206 28.0782 32.3322C28.0782 31.9438 27.7635 31.629 27.375 31.629H26.6719C26.2835 31.629 25.9688 31.9438 25.9688 32.3322C25.9688 32.7206 26.2836 33.0353 26.6719 33.0353Z" fill="white"/>
</svg>
